<?xml version="1.0" standalone="no"?>
<!DOCTYPE svg PUBLIC "-//W3C//DTD SVG 20010904//EN"
 "http://www.w3.org/TR/2001/REC-SVG-20010904/DTD/svg10.dtd">
<svg version="1.0" xmlns="http://www.w3.org/2000/svg"
 width="700.000000pt" height="700.000000pt" viewBox="0 0 700.000000 700.000000"
 preserveAspectRatio="xMidYMid meet">
<metadata>
Created by potrace 1.14, written by Peter Selinger 2001-2017
</metadata>
<g transform="translate(0.000000,700.000000) scale(0.100000,-0.100000)"
fill="#000000" stroke="none">
<path d="M1075 6987 c-71 -24 -120 -54 -164 -102 -66 -71 -85 -122 -91 -245
l-5 -105 -180 -6 c-151 -4 -190 -9 -239 -27 -171 -63 -302 -193 -364 -363
l-27 -74 -3 -2305 c-2 -2274 -2 -2306 18 -2384 59 -236 242 -398 492 -437 109
-17 175 18 184 98 9 76 -38 120 -144 133 -133 17 -247 101 -294 218 l-23 57 0
1960 0 1960 3265 0 3265 0 3 -1925 c1 -1256 -1 -1944 -8 -1979 -21 -113 -82
-198 -182 -252 l-63 -34 -245 -3 -245 -3 -55 67 c-125 151 -386 367 -586 485
-57 34 -104 64 -104 68 0 3 20 40 45 81 48 81 55 121 30 170 -17 34 -62 60
-100 60 -50 0 -82 -27 -136 -117 -29 -49 -53 -89 -54 -90 0 -1 -49 18 -108 42
-318 131 -661 218 -1032 261 -110 13 -227 18 -437 17 l-287 0 -40 91 c-176
403 -360 831 -357 833 2 2 47 15 101 28 102 26 235 45 319 45 48 0 50 1 135
88 187 192 357 268 628 281 139 6 143 7 173 36 36 34 47 83 29 127 -18 44
-188 211 -286 281 -589 420 -1435 385 -2061 -85 -274 -206 -494 -511 -596
-826 -56 -172 -70 -271 -70 -467 0 -190 8 -219 67 -255 62 -38 106 -22 181 65
64 74 180 160 281 207 117 55 220 79 355 83 63 2 120 4 127 4 6 1 59 43 117
94 94 82 271 206 280 196 6 -6 374 -854 372 -856 -1 -2 -56 -12 -122 -23 -959
-163 -1754 -679 -2082 -1352 -122 -249 -184 -552 -137 -666 21 -52 90 -114
143 -130 30 -9 701 -12 2749 -12 2994 0 2760 -5 2831 63 58 56 77 102 75 187
-2 152 -78 417 -169 589 -24 46 -44 84 -44 86 0 1 71 5 158 7 133 5 169 10
238 32 147 47 269 152 339 291 70 138 66 -32 63 2512 l-3 2298 -23 65 c-64
176 -194 308 -368 372 -49 18 -88 23 -239 27 l-180 6 -6 105 c-6 121 -25 173
-85 240 -198 219 -549 118 -604 -172 -6 -28 -10 -79 -10 -114 l0 -64 -229 0
-228 0 -6 98 c-8 152 -56 245 -160 313 -142 92 -328 70 -443 -53 -68 -73 -87
-124 -94 -248 l-5 -105 -231 -3 -232 -2 -4 103 c-3 92 -7 110 -36 169 -38 77
-92 130 -171 167 -47 22 -70 26 -141 26 -71 0 -94 -4 -141 -26 -79 -37 -133
-90 -171 -167 -29 -59 -33 -77 -36 -169 l-4 -103 -232 2 -231 3 -6 105 c-6
121 -25 173 -85 240 -198 219 -549 118 -604 -172 -6 -28 -10 -79 -10 -114 l0
-64 -230 0 -230 0 0 64 c0 180 -68 304 -202 370 -68 33 -180 44 -243 23z m156
-240 c46 -29 49 -50 49 -337 l0 -272 -34 -34 c-39 -39 -86 -45 -136 -19 -58
30 -61 48 -58 344 3 253 4 270 23 291 41 46 107 58 156 27z m1169 -6 c47 -34
50 -49 50 -324 0 -284 -3 -303 -60 -332 -50 -26 -97 -20 -136 19 l-34 34 0
271 c0 292 3 315 52 338 54 27 85 25 128 -6z m1170 0 c46 -32 51 -74 48 -346
-3 -219 -5 -253 -21 -276 -33 -49 -104 -64 -157 -32 -53 31 -55 44 -55 334 0
256 1 269 21 296 38 51 110 62 164 24z m1161 6 c46 -29 49 -50 49 -337 l0
-272 -34 -34 c-39 -39 -86 -45 -136 -19 -58 30 -61 48 -58 344 3 253 4 270 23
291 41 46 107 58 156 27z m1169 -6 c47 -34 50 -49 50 -324 0 -284 -3 -303 -60
-332 -50 -26 -97 -20 -136 19 l-34 34 0 271 c0 292 3 315 52 338 54 27 85 25
128 -6z m-2660 -2686 c104 -23 266 -78 342 -116 73 -37 221 -130 215 -135 -2
-2 -37 -13 -79 -24 -140 -36 -279 -105 -401 -199 l-63 -49 -30 57 c-75 144
-238 323 -384 424 -78 53 -80 56 -53 60 63 11 379 -2 453 -18z m-710 -151 c41
-13 104 -40 140 -61 92 -54 235 -198 309 -312 l61 -95 -108 -22 c-223 -45
-456 -146 -632 -273 l-95 -69 -18 57 c-56 178 -62 411 -13 556 30 88 49 124
109 203 l40 53 66 -7 c36 -3 100 -17 141 -30z m-604 -220 c-3 -8 -11 -67 -18
-130 -9 -89 -9 -143 0 -233 10 -100 45 -267 67 -323 5 -14 -1 -18 -32 -23
-171 -26 -337 -86 -459 -166 l-75 -49 7 37 c31 185 69 305 140 446 75 151 131
227 267 365 88 89 116 110 103 76z m2044 -1733 c315 -41 638 -125 893 -231
l76 -31 -52 -85 -51 -84 -536 0 c-322 0 -549 -4 -571 -10 -60 -17 -110 -71
-228 -249 -97 -146 -114 -176 -114 -211 0 -48 22 -84 65 -106 37 -19 100 -14
128 11 10 9 64 86 120 171 l103 154 518 0 519 0 109 -163 c118 -177 138 -195
208 -184 22 4 49 19 68 37 25 25 30 38 30 78 0 43 -9 60 -103 200 l-103 153
45 77 c25 42 50 83 54 90 7 10 23 5 73 -24 415 -241 718 -567 863 -926 34 -85
78 -250 90 -335 l6 -43 -2675 0 -2675 0 4 23 c3 12 10 53 16 92 6 38 27 117
46 176 207 640 914 1169 1824 1363 164 35 334 60 338 50 1 -5 33 -79 71 -164
55 -128 73 -159 101 -177 67 -46 153 -14 178 64 14 44 6 71 -72 245 l-25 57
32 5 c76 11 478 -4 627 -23z"/>
<path d="M5174 4746 c-34 -34 -34 -35 -34 -122 l0 -89 -61 -23 -60 -24 -58 56
c-32 30 -70 58 -85 62 -77 19 -146 -34 -146 -113 0 -41 5 -50 61 -108 l61 -63
-24 -61 -23 -61 -78 0 c-118 0 -167 -34 -167 -117 0 -33 7 -50 29 -75 28 -32
33 -33 121 -38 l92 -5 24 -60 24 -59 -55 -56 c-61 -62 -78 -102 -64 -153 10
-39 32 -61 73 -77 47 -18 86 -2 151 61 l61 58 60 -24 59 -24 5 -90 c5 -82 7
-92 34 -120 37 -39 83 -48 128 -27 50 24 62 50 68 149 l5 88 59 24 60 24 61
-58 c65 -63 104 -79 151 -61 41 16 63 38 73 77 14 51 -3 91 -64 153 l-55 56
24 59 24 60 91 5 c80 4 94 8 116 30 50 50 49 124 -1 171 -23 21 -36 24 -117
27 l-92 4 -23 60 -24 60 61 63 c58 60 67 79 63 130 -5 57 -53 95 -121 95 -35
0 -48 -7 -105 -61 l-65 -60 -60 23 -61 23 0 89 c0 87 0 88 -34 122 -29 29 -41
34 -81 34 -40 0 -52 -5 -81 -34z m181 -455 c55 -25 101 -81 120 -146 26 -89 0
-174 -76 -238 -144 -124 -370 -19 -372 172 -1 97 52 180 138 217 44 19 143 17
190 -5z"/>
</g>
</svg>
